<svg xmlns="http://www.w3.org/2000/svg" viewBox="0 0 1200 760" role="img" aria-labelledby="title desc">
  <title id="title">lynx-vello style architecture refactor</title>
  <desc id="desc">Before and after diagram showing lynx-style removed, standards-oriented CSS computation and SharedRwLock moved into stylo-dom, and Lynx-specific device policy moved into lynx-widget.</desc>
  <defs>
    <linearGradient id="page" x1="0" y1="0" x2="0" y2="1">
      <stop offset="0" stop-color="#f8fafc"/>
      <stop offset="1" stop-color="#eef2f7"/>
    </linearGradient>
    <filter id="shadow" x="-20%" y="-20%" width="140%" height="140%">
      <feDropShadow dx="0" dy="3" stdDeviation="5" flood-color="#0f172a" flood-opacity="0.12"/>
    </filter>
    <marker id="arrow" viewBox="0 0 10 10" refX="9" refY="5" markerWidth="7" markerHeight="7" orient="auto-start-reverse">
      <path d="M0 0L10 5L0 10Z" fill="#475569"/>
    </marker>
    <style>
      .title { font: 700 30px -apple-system, BlinkMacSystemFont, "Segoe UI", sans-serif; fill: #0f172a; }
      .subtitle { font: 400 15px -apple-system, BlinkMacSystemFont, "Segoe UI", sans-serif; fill: #475569; }
      .panel-title { font: 700 18px -apple-system, BlinkMacSystemFont, "Segoe UI", sans-serif; fill: #0f172a; }
      .crate { font: 700 17px ui-monospace, SFMono-Regular, Menlo, monospace; fill: #0f172a; }
      .role { font: 500 13px -apple-system, BlinkMacSystemFont, "Segoe UI", sans-serif; fill: #475569; }
      .item { font: 500 13px ui-monospace, SFMono-Regular, Menlo, monospace; fill: #1e293b; }
      .small { font: 500 12px -apple-system, BlinkMacSystemFont, "Segoe UI", sans-serif; fill: #475569; }
      .callout { font: 700 13px -apple-system, BlinkMacSystemFont, "Segoe UI", sans-serif; }
      .arrow { fill: none; stroke: #475569; stroke-width: 2; marker-end: url(#arrow); }
    </style>
  </defs>

  <rect width="1200" height="760" fill="url(#page)"/>
  <text x="52" y="50" class="title">Style architecture refactor</text>
  <text x="52" y="76" class="subtitle">One standards-oriented core, one Lynx adapter, one lock owner</text>

  <rect x="40" y="104" width="535" height="548" rx="18" fill="#fff" stroke="#cbd5e1" filter="url(#shadow)"/>
  <rect x="625" y="104" width="535" height="548" rx="18" fill="#fff" stroke="#86efac" stroke-width="2" filter="url(#shadow)"/>
  <text x="68" y="142" class="panel-title">Before</text>
  <text x="653" y="142" class="panel-title">After</text>

  <!-- Before -->
  <rect x="72" y="168" width="471" height="104" rx="10" fill="#fff7ed" stroke="#fdba74"/>
  <text x="92" y="197" class="crate">lynx-widget</text>
  <text x="92" y="220" class="role">Widget/PAPI only</text>
  <text x="92" y="246" class="item">WidgetTree · WidgetState · Element PAPI</text>

  <path d="M307 272V303" class="arrow"/>

  <rect x="72" y="310" width="471" height="145" rx="10" fill="#fef2f2" stroke="#fca5a5"/>
  <text x="92" y="340" class="crate">lynx-style</text>
  <text x="92" y="363" class="role">mixed generic CSS machinery and Lynx policy</text>
  <text x="92" y="390" class="item">Stylist · matching · cascade · stylesheets</text>
  <text x="92" y="414" class="item">ViewMetrics · viewport rpx · Device policy</text>
  <text x="92" y="438" class="item">SharedRwLock</text>

  <path d="M307 455V486" class="arrow"/>

  <rect x="72" y="493" width="471" height="124" rx="10" fill="#eff6ff" stroke="#93c5fd"/>
  <text x="92" y="523" class="crate">stylo-dom</text>
  <text x="92" y="546" class="role">generic DOM primitives without the cascade owner</text>
  <text x="92" y="573" class="item">Element&lt;T&gt; · Arena&lt;T&gt; · stylo traits</text>
  <text x="92" y="597" class="item">inline parsing · caller-supplied lock</text>

  <rect x="365" y="288" width="158" height="28" rx="14" fill="#fee2e2"/>
  <text x="444" y="307" text-anchor="middle" class="callout" fill="#b91c1c">lock crosses crates</text>

  <!-- After -->
  <rect x="657" y="168" width="471" height="145" rx="10" fill="#fff7ed" stroke="#fdba74"/>
  <text x="677" y="198" class="crate">lynx-widget</text>
  <text x="677" y="221" class="role">Lynx vocabulary and platform policy</text>
  <text x="677" y="248" class="item">WidgetTree · WidgetState · Element PAPI</text>
  <text x="677" y="272" class="item">ViewMetrics · touch Device · viewport rpx</text>
  <text x="677" y="296" class="item">thin StyleEngine adapter</text>

  <path d="M892 313V348" class="arrow"/>
  <rect x="924" y="319" width="184" height="28" rx="14" fill="#dcfce7"/>
  <text x="1016" y="338" text-anchor="middle" class="callout" fill="#15803d">no lock in public API</text>

  <rect x="657" y="355" width="471" height="202" rx="10" fill="#eff6ff" stroke="#60a5fa" stroke-width="2"/>
  <text x="677" y="385" class="crate">stylo-dom</text>
  <text x="677" y="408" class="role">generic DOM + standards-oriented CSS computation</text>
  <text x="677" y="435" class="item">Element&lt;T&gt; · Arena&lt;T&gt; · stylo traits</text>
  <text x="677" y="459" class="item">stylesheets · selector matching · rule tree</text>
  <text x="677" y="483" class="item">inheritance · cascade · media refresh</text>
  <text x="677" y="507" class="item">StyleEngine { Stylist · SharedRwLock }</text>
  <text x="677" y="531" class="item">engine-created arenas share private context</text>

  <path d="M892 557V584" class="arrow"/>
  <rect x="657" y="591" width="471" height="44" rx="10" fill="#faf5ff" stroke="#c4b5fd"/>
  <text x="677" y="619" class="crate">vendor/stylo</text>
  <text x="856" y="619" class="role">CSS primitives + Lynx grammar extensions</text>

  <g transform="translate(541 356)">
    <circle cx="60" cy="34" r="31" fill="#dcfce7" stroke="#4ade80"/>
    <path d="M45 34H72M63 25L72 34L63 43" fill="none" stroke="#15803d" stroke-width="3" stroke-linecap="round" stroke-linejoin="round"/>
  </g>

  <rect x="40" y="680" width="1120" height="48" rx="12" fill="#0f172a"/>
  <text x="600" y="710" text-anchor="middle" class="callout" fill="#f8fafc">Dependency direction: lynx-widget → stylo-dom → vendor/stylo · standards go down, Lynx policy stays up</text>
</svg>
